<svg width="327" height="195" viewBox="0 0 327 195" fill="none" xmlns="http://www.w3.org/2000/svg">
<g filter="url(#filter0_d_7701_17179)">
<mask id="path-1-outside-1_7701_17179" maskUnits="userSpaceOnUse" x="71" y="103" width="252" height="84" fill="black">
<rect fill="white" x="71" y="103" width="252" height="84"/>
<path d="M105.104 166.924C100.736 166.924 96.676 166.168 92.924 164.656C89.172 163.088 85.868 160.932 83.012 158.188C80.212 155.388 78 152.168 76.376 148.528C74.808 144.832 74.024 140.856 74.024 136.6C74.024 132.344 74.808 128.396 76.376 124.756C78 121.06 80.212 117.84 83.012 115.096C85.868 112.296 89.172 110.14 92.924 108.628C96.676 107.06 100.736 106.276 105.104 106.276C109.472 106.276 113.532 107.06 117.284 108.628C121.092 110.14 124.396 112.296 127.196 115.096C130.052 117.84 132.264 121.06 133.832 124.756C135.4 128.396 136.184 132.344 136.184 136.6C136.184 140.856 135.4 144.832 133.832 148.528C132.264 152.168 130.052 155.388 127.196 158.188C124.396 160.932 121.092 163.088 117.284 164.656C113.532 166.168 109.472 166.924 105.104 166.924ZM105.104 155.752C107.792 155.752 110.256 155.276 112.496 154.324C114.736 153.316 116.696 151.972 118.376 150.292C120.056 148.556 121.372 146.512 122.324 144.16C123.276 141.808 123.752 139.288 123.752 136.6C123.752 133.856 123.276 131.336 122.324 129.04C121.372 126.688 120.056 124.672 118.376 122.992C116.696 121.256 114.736 119.912 112.496 118.96C110.256 117.952 107.792 117.448 105.104 117.448C102.472 117.448 100.036 117.952 97.796 118.96C95.556 119.912 93.596 121.256 91.916 122.992C90.236 124.672 88.92 126.688 87.968 129.04C87.016 131.336 86.54 133.828 86.54 136.516C86.54 139.26 87.016 141.808 87.968 144.16C88.92 146.512 90.236 148.556 91.916 150.292C93.596 151.972 95.556 153.316 97.796 154.324C100.036 155.276 102.472 155.752 105.104 155.752ZM165.204 166.84C160.836 166.84 156.888 165.832 153.36 163.816C149.832 161.8 147.032 159.084 144.96 155.668C142.888 152.252 141.852 148.416 141.852 144.16C141.852 139.904 142.86 136.068 144.876 132.652C146.948 129.18 149.748 126.436 153.276 124.42C156.86 122.404 160.836 121.396 165.204 121.396C169.572 121.396 173.52 122.404 177.048 124.42C180.632 126.436 183.432 129.18 185.448 132.652C187.52 136.068 188.556 139.904 188.556 144.16C188.556 148.416 187.52 152.252 185.448 155.668C183.432 159.084 180.66 161.8 177.132 163.816C173.604 165.832 169.628 166.84 165.204 166.84ZM165.204 156.844C167.5 156.844 169.544 156.284 171.336 155.164C173.184 154.044 174.64 152.532 175.704 150.628C176.824 148.668 177.384 146.512 177.384 144.16C177.384 141.752 176.824 139.596 175.704 137.692C174.64 135.788 173.184 134.276 171.336 133.156C169.544 131.98 167.5 131.392 165.204 131.392C162.964 131.392 160.92 131.98 159.072 133.156C157.224 134.276 155.768 135.788 154.704 137.692C153.64 139.596 153.108 141.752 153.108 144.16C153.108 146.512 153.64 148.668 154.704 150.628C155.768 152.532 157.224 154.044 159.072 155.164C160.92 156.284 162.964 156.844 165.204 156.844ZM195.63 183.136V122.236H206.97V125.848C210.554 123.048 214.698 121.648 219.402 121.648C223.546 121.648 227.298 122.656 230.658 124.672C234.018 126.688 236.678 129.404 238.638 132.82C240.654 136.18 241.662 139.96 241.662 144.16C241.662 148.36 240.654 152.168 238.638 155.584C236.622 158.944 233.906 161.632 230.49 163.648C227.074 165.608 223.266 166.588 219.066 166.588C216.882 166.588 214.782 166.308 212.766 165.748C210.75 165.132 208.874 164.264 207.138 163.144V183.136H195.63ZM217.554 156.844C219.962 156.844 222.118 156.284 224.022 155.164C225.982 154.044 227.522 152.532 228.642 150.628C229.762 148.724 230.322 146.568 230.322 144.16C230.322 141.752 229.762 139.596 228.642 137.692C227.522 135.732 225.982 134.22 224.022 133.156C222.118 132.036 219.962 131.476 217.554 131.476C215.426 131.476 213.466 131.84 211.674 132.568C209.938 133.24 208.426 134.276 207.138 135.676V152.728C208.37 154.016 209.882 155.024 211.674 155.752C213.522 156.48 215.482 156.844 217.554 156.844ZM265.002 166.84C260.97 166.84 257.246 166.336 253.83 165.328C250.414 164.264 247.446 162.752 244.926 160.792L250.638 153.148C253.158 154.828 255.566 156.088 257.862 156.928C260.214 157.768 262.538 158.188 264.834 158.188C267.41 158.188 269.454 157.768 270.966 156.928C272.534 156.032 273.318 154.884 273.318 153.484C273.318 152.364 272.87 151.468 271.974 150.796C271.134 150.124 269.762 149.648 267.858 149.368L259.458 148.108C255.09 147.436 251.786 146.036 249.546 143.908C247.306 141.724 246.186 138.868 246.186 135.34C246.186 132.484 246.914 130.048 248.37 128.032C249.882 125.96 251.982 124.364 254.67 123.244C257.414 122.068 260.662 121.48 264.414 121.48C267.606 121.48 270.714 121.928 273.738 122.824C276.818 123.72 279.702 125.092 282.39 126.94L276.846 134.416C274.438 132.904 272.142 131.812 269.958 131.14C267.774 130.468 265.562 130.132 263.322 130.132C261.25 130.132 259.57 130.524 258.282 131.308C257.05 132.092 256.434 133.128 256.434 134.416C256.434 135.592 256.882 136.516 257.778 137.188C258.674 137.86 260.214 138.336 262.398 138.616L270.714 139.876C275.082 140.492 278.414 141.892 280.71 144.076C283.006 146.204 284.154 148.976 284.154 152.392C284.154 155.192 283.314 157.684 281.634 159.868C279.954 161.996 277.686 163.704 274.83 164.992C271.974 166.224 268.698 166.84 265.002 166.84ZM307.958 148.36L306.53 106.78H318.206L316.778 148.36H307.958ZM312.326 166.84C310.478 166.84 308.882 166.168 307.538 164.824C306.194 163.48 305.522 161.884 305.522 160.036C305.522 158.132 306.194 156.508 307.538 155.164C308.882 153.82 310.478 153.148 312.326 153.148C314.23 153.148 315.854 153.82 317.198 155.164C318.542 156.508 319.214 158.132 319.214 160.036C319.214 161.884 318.542 163.48 317.198 164.824C315.854 166.168 314.23 166.84 312.326 166.84Z"/>
</mask>
<path d="M92.924 164.656L91.7672 167.424L91.7849 167.431L91.8027 167.439L92.924 164.656ZM83.012 158.188L80.8907 160.309L80.9119 160.331L80.9335 160.351L83.012 158.188ZM76.376 148.528L73.6143 149.7L73.625 149.725L73.6363 149.75L76.376 148.528ZM76.376 124.756L73.6294 123.549L73.6251 123.559L73.6208 123.569L76.376 124.756ZM83.012 115.096L85.1118 117.239L85.1122 117.238L83.012 115.096ZM92.924 108.628L94.0453 111.411L94.0631 111.403L94.0808 111.396L92.924 108.628ZM117.284 108.628L116.127 111.396L116.152 111.406L116.177 111.416L117.284 108.628ZM127.196 115.096L125.075 117.217L125.096 117.239L125.118 117.259L127.196 115.096ZM133.832 124.756L131.07 125.928L131.073 125.935L131.077 125.943L133.832 124.756ZM133.832 148.528L136.587 149.715L136.591 149.707L136.594 149.7L133.832 148.528ZM127.196 158.188L129.296 160.331L129.296 160.33L127.196 158.188ZM117.284 164.656L118.405 167.439L118.416 167.434L118.426 167.43L117.284 164.656ZM112.496 154.324L113.669 157.085L113.698 157.073L113.727 157.06L112.496 154.324ZM118.376 150.292L120.497 152.413L120.515 152.396L120.532 152.378L118.376 150.292ZM122.324 144.16L119.543 143.034L119.543 143.034L122.324 144.16ZM122.324 129.04L119.543 130.166L119.548 130.177L119.553 130.189L122.324 129.04ZM118.376 122.992L116.22 125.078L116.237 125.096L116.255 125.113L118.376 122.992ZM112.496 118.96L111.265 121.696L111.294 121.709L111.323 121.721L112.496 118.96ZM97.796 118.96L98.9694 121.721L98.9984 121.709L99.0271 121.696L97.796 118.96ZM91.916 122.992L94.0373 125.113L94.0547 125.096L94.0718 125.078L91.916 122.992ZM87.968 129.04L90.7392 130.189L90.7441 130.177L90.7488 130.166L87.968 129.04ZM87.968 144.16L90.7488 143.034L90.7488 143.034L87.968 144.16ZM91.916 150.292L89.7602 152.378L89.7773 152.396L89.7947 152.413L91.916 150.292ZM97.796 154.324L96.5649 157.06L96.5936 157.073L96.6226 157.085L97.796 154.324ZM105.104 163.924C101.089 163.924 97.4134 163.231 94.0453 161.873L91.8027 167.439C95.9387 169.105 100.383 169.924 105.104 169.924V163.924ZM94.0808 161.888C90.6614 160.459 87.672 158.505 85.0905 156.025L80.9335 160.351C84.064 163.359 87.6826 165.717 91.7672 167.424L94.0808 161.888ZM85.1333 156.067C82.5944 153.528 80.5913 150.613 79.1157 147.306L73.6363 149.75C75.4087 153.723 77.8296 157.248 80.8907 160.309L85.1333 156.067ZM79.1377 147.356C77.7363 144.053 77.024 140.478 77.024 136.6H71.024C71.024 141.234 71.8797 145.611 73.6143 149.7L79.1377 147.356ZM77.024 136.6C77.024 132.722 77.7364 129.181 79.1312 125.943L73.6208 123.569C71.8796 127.611 71.024 131.966 71.024 136.6H77.024ZM79.1226 125.963C80.5973 122.607 82.5933 119.707 85.1118 117.239L80.9122 112.953C77.8307 115.973 75.4027 119.513 73.6294 123.549L79.1226 125.963ZM85.1122 117.238C87.6838 114.717 90.6542 112.777 94.0453 111.411L91.8027 105.845C87.6898 107.503 84.0522 109.875 80.9118 112.954L85.1122 117.238ZM94.0808 111.396C97.4398 109.992 101.103 109.276 105.104 109.276V103.276C100.369 103.276 95.9122 104.128 91.7672 105.86L94.0808 111.396ZM105.104 109.276C109.105 109.276 112.768 109.992 116.127 111.396L118.441 105.86C114.296 104.128 109.839 103.276 105.104 103.276V109.276ZM116.177 111.416C119.618 112.783 122.574 114.717 125.075 117.217L129.317 112.975C126.218 109.875 122.566 107.497 118.391 105.84L116.177 111.416ZM125.118 117.259C127.677 119.718 129.658 122.6 131.07 125.928L136.594 123.584C134.87 119.52 132.427 115.962 129.274 112.933L125.118 117.259ZM131.077 125.943C132.472 129.181 133.184 132.722 133.184 136.6H139.184C139.184 131.966 138.328 127.611 136.587 123.569L131.077 125.943ZM133.184 136.6C133.184 140.478 132.472 144.053 131.07 147.356L136.594 149.7C138.328 145.611 139.184 141.234 139.184 136.6H133.184ZM131.077 147.341C129.664 150.62 127.676 153.516 125.096 156.046L129.296 160.33C132.428 157.26 134.864 153.716 136.587 149.715L131.077 147.341ZM125.096 156.045C122.586 158.506 119.611 160.453 116.142 161.882L118.426 167.43C122.573 165.723 126.206 163.358 129.296 160.331L125.096 156.045ZM116.163 161.873C112.795 163.231 109.119 163.924 105.104 163.924V169.924C109.825 169.924 114.269 169.105 118.405 167.439L116.163 161.873ZM105.104 158.752C108.153 158.752 111.021 158.21 113.669 157.085L111.323 151.563C109.491 152.342 107.431 152.752 105.104 152.752V158.752ZM113.727 157.06C116.287 155.908 118.552 154.359 120.497 152.413L116.255 148.171C114.84 149.585 113.185 150.724 111.265 151.588L113.727 157.06ZM120.532 152.378C122.493 150.351 124.016 147.977 125.105 145.286L119.543 143.034C118.728 145.047 117.619 146.761 116.22 148.206L120.532 152.378ZM125.105 145.286C126.21 142.555 126.752 139.651 126.752 136.6H120.752C120.752 138.925 120.342 141.061 119.543 143.034L125.105 145.286ZM126.752 136.6C126.752 133.503 126.213 130.587 125.095 127.891L119.553 130.189C120.339 132.085 120.752 134.209 120.752 136.6H126.752ZM125.105 127.914C124.012 125.215 122.481 122.854 120.497 120.871L116.255 125.113C117.631 126.49 118.732 128.161 119.543 130.166L125.105 127.914ZM120.532 120.906C118.571 118.879 116.276 117.307 113.669 116.199L111.323 121.721C113.196 122.517 114.821 123.633 116.22 125.078L120.532 120.906ZM113.727 116.224C111.065 115.026 108.176 114.448 105.104 114.448V120.448C107.408 120.448 109.447 120.878 111.265 121.696L113.727 116.224ZM105.104 114.448C102.078 114.448 99.2191 115.03 96.5649 116.224L99.0271 121.696C100.853 120.874 102.866 120.448 105.104 120.448V114.448ZM96.6226 116.199C94.0161 117.307 91.7214 118.879 89.7602 120.906L94.0718 125.078C95.4706 123.633 97.0959 122.517 98.9694 121.721L96.6226 116.199ZM89.7947 120.871C87.8114 122.854 86.2796 125.215 85.1872 127.914L90.7488 130.166C91.5604 128.161 92.6606 126.49 94.0373 125.113L89.7947 120.871ZM85.1968 127.891C84.0818 130.58 83.54 133.466 83.54 136.516H89.54C89.54 134.19 89.9502 132.092 90.7392 130.189L85.1968 127.891ZM83.54 136.516C83.54 139.614 84.079 142.548 85.1872 145.286L90.7488 143.034C89.953 141.068 89.54 138.906 89.54 136.516H83.54ZM85.1872 145.286C86.2764 147.977 87.7987 150.351 89.7602 152.378L94.0718 148.206C92.6733 146.761 91.5636 145.047 90.7488 143.034L85.1872 145.286ZM89.7947 152.413C91.7404 154.359 94.0048 155.908 96.5649 157.06L99.0271 151.588C97.1072 150.724 95.4516 149.585 94.0373 148.171L89.7947 152.413ZM96.6226 157.085C99.263 158.207 102.102 158.752 105.104 158.752V152.752C102.842 152.752 100.809 152.345 98.9694 151.563L96.6226 157.085ZM153.36 163.816L154.848 161.211L154.848 161.211L153.36 163.816ZM144.96 155.668L142.395 157.224L142.395 157.224L144.96 155.668ZM144.876 132.652L142.3 131.115L142.296 131.121L142.292 131.127L144.876 132.652ZM153.276 124.42L151.805 121.805L151.796 121.81L151.788 121.815L153.276 124.42ZM177.048 124.42L175.56 127.025L175.568 127.03L175.577 127.035L177.048 124.42ZM185.448 132.652L182.854 134.158L182.868 134.183L182.883 134.208L185.448 132.652ZM185.448 155.668L182.883 154.112L182.874 154.128L182.864 154.143L185.448 155.668ZM177.132 163.816L178.62 166.421L177.132 163.816ZM171.336 155.164L169.781 152.598L169.764 152.609L169.746 152.62L171.336 155.164ZM175.704 150.628L173.099 149.14L173.092 149.152L173.085 149.165L175.704 150.628ZM175.704 137.692L173.085 139.155L173.101 139.184L173.118 139.213L175.704 137.692ZM171.336 133.156L169.69 135.664L169.735 135.694L169.781 135.722L171.336 133.156ZM159.072 133.156L160.627 135.722L160.655 135.705L160.683 135.687L159.072 133.156ZM154.704 137.692L157.323 139.155L157.323 139.155L154.704 137.692ZM154.704 150.628L152.067 152.059L152.076 152.075L152.085 152.091L154.704 150.628ZM159.072 155.164L160.627 152.598L160.627 152.598L159.072 155.164ZM165.204 163.84C161.318 163.84 157.889 162.949 154.848 161.211L151.872 166.421C155.887 168.715 160.354 169.84 165.204 169.84V163.84ZM154.848 161.211C151.755 159.443 149.328 157.085 147.525 154.112L142.395 157.224C144.736 161.083 147.909 164.157 151.872 166.421L154.848 161.211ZM147.525 154.112C145.756 151.196 144.852 147.905 144.852 144.16H138.852C138.852 148.927 140.02 153.308 142.395 157.224L147.525 154.112ZM144.852 144.16C144.852 140.4 145.736 137.097 147.46 134.177L142.292 131.127C139.984 135.039 138.852 139.408 138.852 144.16H144.852ZM147.452 134.189C149.258 131.163 151.683 128.786 154.764 127.025L151.788 121.815C147.814 124.086 144.638 127.197 142.3 131.115L147.452 134.189ZM154.747 127.035C157.854 125.287 161.318 124.396 165.204 124.396V118.396C160.354 118.396 155.866 119.521 151.805 121.805L154.747 127.035ZM165.204 124.396C169.09 124.396 172.519 125.287 175.56 127.025L178.536 121.815C174.521 119.521 170.054 118.396 165.204 118.396V124.396ZM175.577 127.035C178.706 128.795 181.113 131.161 182.854 134.158L188.042 131.146C185.751 127.199 182.558 124.077 178.519 121.805L175.577 127.035ZM182.883 134.208C184.652 137.124 185.556 140.415 185.556 144.16H191.556C191.556 139.393 190.388 135.012 188.013 131.096L182.883 134.208ZM185.556 144.16C185.556 147.905 184.652 151.196 182.883 154.112L188.013 157.224C190.388 153.308 191.556 148.927 191.556 144.16H185.556ZM182.864 154.143C181.12 157.099 178.73 159.447 175.644 161.211L178.62 166.421C182.59 164.153 185.744 161.069 188.032 157.193L182.864 154.143ZM175.644 161.211C172.609 162.946 169.154 163.84 165.204 163.84V169.84C170.102 169.84 174.599 168.718 178.62 166.421L175.644 161.211ZM165.204 159.844C168.012 159.844 170.616 159.152 172.926 157.708L169.746 152.62C168.472 153.416 166.988 153.844 165.204 153.844V159.844ZM172.891 157.73C175.187 156.338 177.008 154.444 178.323 152.091L173.085 149.165C172.272 150.62 171.181 151.75 169.781 152.598L172.891 157.73ZM178.309 152.116C179.699 149.684 180.384 147.011 180.384 144.16H174.384C174.384 146.013 173.949 147.652 173.099 149.14L178.309 152.116ZM180.384 144.16C180.384 141.267 179.705 138.577 178.29 136.171L173.118 139.213C173.943 140.615 174.384 142.237 174.384 144.16H180.384ZM178.323 136.229C177.008 133.876 175.187 131.982 172.891 130.59L169.781 135.722C171.181 136.57 172.272 137.7 173.085 139.155L178.323 136.229ZM172.982 130.648C170.666 129.128 168.041 128.392 165.204 128.392V134.392C166.959 134.392 168.422 134.832 169.69 135.664L172.982 130.648ZM165.204 128.392C162.407 128.392 159.802 129.135 157.461 130.625L160.683 135.687C162.038 134.825 163.521 134.392 165.204 134.392V128.392ZM157.517 130.59C155.221 131.982 153.4 133.876 152.085 136.229L157.323 139.155C158.136 137.7 159.227 136.57 160.627 135.722L157.517 130.59ZM152.085 136.229C150.746 138.625 150.108 141.294 150.108 144.16H156.108C156.108 142.21 156.534 140.567 157.323 139.155L152.085 136.229ZM150.108 144.16C150.108 146.984 150.752 149.636 152.067 152.059L157.341 149.197C156.528 147.7 156.108 146.04 156.108 144.16H150.108ZM152.085 152.091C153.4 154.444 155.221 156.338 157.517 157.73L160.627 152.598C159.227 151.75 158.136 150.62 157.323 149.165L152.085 152.091ZM157.517 157.73C159.852 159.144 162.437 159.844 165.204 159.844V153.844C163.491 153.844 161.988 153.424 160.627 152.598L157.517 157.73ZM195.63 183.136H192.63V186.136H195.63V183.136ZM195.63 122.236V119.236H192.63V122.236H195.63ZM206.97 122.236H209.97V119.236H206.97V122.236ZM206.97 125.848H203.97V131.999L208.817 128.212L206.97 125.848ZM238.638 132.82L236.036 134.313L236.05 134.338L236.065 134.363L238.638 132.82ZM238.638 155.584L241.21 157.127L241.216 157.118L241.221 157.109L238.638 155.584ZM230.49 163.648L231.983 166.25L231.999 166.241L232.015 166.232L230.49 163.648ZM212.766 165.748L211.889 168.617L211.926 168.628L211.963 168.639L212.766 165.748ZM207.138 163.144L208.764 160.623L204.138 157.638V163.144H207.138ZM207.138 183.136V186.136H210.138V183.136H207.138ZM224.022 155.164L222.533 152.559L222.517 152.569L222.501 152.578L224.022 155.164ZM228.642 150.628L231.228 152.149L231.228 152.149L228.642 150.628ZM228.642 137.692L226.037 139.18L226.046 139.197L226.056 139.213L228.642 137.692ZM224.022 133.156L222.501 135.742L222.545 135.768L222.59 135.793L224.022 133.156ZM211.674 132.568L212.757 135.366L212.78 135.357L212.803 135.347L211.674 132.568ZM207.138 135.676L204.93 133.645L204.138 134.506V135.676H207.138ZM207.138 152.728H204.138V153.932L204.97 154.802L207.138 152.728ZM211.674 155.752L210.545 158.531L210.559 158.537L210.574 158.543L211.674 155.752ZM198.63 183.136V122.236H192.63V183.136H198.63ZM195.63 125.236H206.97V119.236H195.63V125.236ZM203.97 122.236V125.848H209.97V122.236H203.97ZM208.817 128.212C211.854 125.839 215.342 124.648 219.402 124.648V118.648C214.053 118.648 209.253 120.257 205.123 123.484L208.817 128.212ZM219.402 124.648C223.035 124.648 226.248 125.525 229.114 127.244L232.201 122.1C228.348 119.787 224.057 118.648 219.402 118.648V124.648ZM229.114 127.244C232.033 128.996 234.329 131.339 236.036 134.313L241.24 131.327C239.026 127.469 236.003 124.38 232.201 122.1L229.114 127.244ZM236.065 134.363C237.781 137.224 238.662 140.463 238.662 144.16H244.662C244.662 139.457 243.526 135.136 241.21 131.277L236.065 134.363ZM238.662 144.16C238.662 147.856 237.781 151.133 236.054 154.059L241.221 157.109C243.526 153.203 244.662 148.864 244.662 144.16H238.662ZM236.065 154.041C234.31 156.966 231.956 159.299 228.965 161.064L232.015 166.232C235.855 163.965 238.934 160.922 241.21 157.127L236.065 154.041ZM228.997 161.046C226.065 162.728 222.778 163.588 219.066 163.588V169.588C223.754 169.588 228.082 168.488 231.983 166.25L228.997 161.046ZM219.066 163.588C217.141 163.588 215.312 163.342 213.569 162.857L211.963 168.639C214.252 169.274 216.622 169.588 219.066 169.588V163.588ZM213.642 162.879C211.886 162.342 210.263 161.59 208.764 160.623L205.511 165.665C207.485 166.938 209.614 167.922 211.889 168.617L213.642 162.879ZM204.138 163.144V183.136H210.138V163.144H204.138ZM207.138 180.136H195.63V186.136H207.138V180.136ZM217.554 159.844C220.447 159.844 223.137 159.165 225.543 157.75L222.501 152.578C221.099 153.403 219.477 153.844 217.554 153.844V159.844ZM225.51 157.769C227.914 156.395 229.836 154.514 231.228 152.149L226.056 149.107C225.207 150.55 224.05 151.693 222.533 152.559L225.51 157.769ZM231.228 152.149C232.643 149.743 233.322 147.053 233.322 144.16H227.322C227.322 146.083 226.881 147.705 226.056 149.107L231.228 152.149ZM233.322 144.16C233.322 141.267 232.643 138.577 231.228 136.171L226.056 139.213C226.881 140.615 227.322 142.237 227.322 144.16H233.322ZM231.246 136.204C229.853 133.765 227.91 131.853 225.453 130.519L222.59 135.793C224.054 136.587 225.19 137.699 226.037 139.18L231.246 136.204ZM225.543 130.57C223.137 129.155 220.447 128.476 217.554 128.476V134.476C219.477 134.476 221.099 134.917 222.501 135.742L225.543 130.57ZM217.554 128.476C215.078 128.476 212.73 128.901 210.545 129.789L212.803 135.347C214.202 134.779 215.774 134.476 217.554 134.476V128.476ZM210.591 129.77C208.416 130.612 206.522 131.914 204.93 133.645L209.346 137.707C210.329 136.638 211.459 135.868 212.757 135.366L210.591 129.77ZM204.138 135.676V152.728H210.138V135.676H204.138ZM204.97 154.802C206.519 156.421 208.394 157.658 210.545 158.531L212.803 152.973C211.369 152.39 210.221 151.611 209.306 150.654L204.97 154.802ZM210.574 158.543C212.787 159.415 215.122 159.844 217.554 159.844V153.844C215.842 153.844 214.256 153.545 212.773 152.961L210.574 158.543ZM253.83 165.328L252.938 168.192L252.959 168.199L252.981 168.205L253.83 165.328ZM244.926 160.792L242.523 158.996L240.761 161.353L243.084 163.16L244.926 160.792ZM250.638 153.148L252.302 150.652L249.937 149.075L248.235 151.352L250.638 153.148ZM257.862 156.928L256.831 159.745L256.842 159.749L256.853 159.753L257.862 156.928ZM270.966 156.928L272.423 159.55L272.439 159.542L272.454 159.533L270.966 156.928ZM271.974 150.796L270.1 153.139L270.136 153.168L270.174 153.196L271.974 150.796ZM267.858 149.368L267.413 152.335L267.421 152.336L267.858 149.368ZM259.458 148.108L259.002 151.073L259.013 151.075L259.458 148.108ZM249.546 143.908L247.452 146.056L247.466 146.07L247.48 146.083L249.546 143.908ZM248.37 128.032L245.947 126.264L245.942 126.27L245.938 126.276L248.37 128.032ZM254.67 123.244L255.824 126.013L255.838 126.007L255.852 126.001L254.67 123.244ZM273.738 122.824L272.886 125.7L272.893 125.703L272.9 125.705L273.738 122.824ZM282.39 126.94L284.8 128.727L286.652 126.229L284.09 124.468L282.39 126.94ZM276.846 134.416L275.251 136.957L277.602 138.433L279.256 136.203L276.846 134.416ZM269.958 131.14L270.84 128.273L270.84 128.273L269.958 131.14ZM258.282 131.308L256.722 128.745L256.697 128.761L256.671 128.777L258.282 131.308ZM262.398 138.616L262.847 135.65L262.813 135.645L262.779 135.64L262.398 138.616ZM270.714 139.876L270.265 142.842L270.28 142.844L270.295 142.847L270.714 139.876ZM280.71 144.076L278.642 146.25L278.656 146.263L278.671 146.276L280.71 144.076ZM281.634 159.868L283.989 161.727L284 161.712L284.012 161.697L281.634 159.868ZM274.83 164.992L276.018 167.747L276.041 167.737L276.063 167.727L274.83 164.992ZM265.002 163.84C261.22 163.84 257.786 163.367 254.679 162.451L252.981 168.205C256.706 169.305 260.72 169.84 265.002 169.84V163.84ZM254.722 162.464C251.609 161.494 248.971 160.138 246.768 158.424L243.084 163.16C245.921 165.366 249.219 167.034 252.938 168.192L254.722 162.464ZM247.329 162.588L253.041 154.944L248.235 151.352L242.523 158.996L247.329 162.588ZM248.974 155.644C251.647 157.426 254.267 158.807 256.831 159.745L258.893 154.111C256.865 153.369 254.669 152.23 252.302 150.652L248.974 155.644ZM256.853 159.753C259.5 160.699 262.165 161.188 264.834 161.188V155.188C262.911 155.188 260.928 154.837 258.871 154.103L256.853 159.753ZM264.834 161.188C267.689 161.188 270.299 160.73 272.423 159.55L269.509 154.306C268.608 154.806 267.131 155.188 264.834 155.188V161.188ZM272.454 159.533C274.644 158.281 276.318 156.278 276.318 153.484H270.318C270.318 153.585 270.302 153.631 270.253 153.703C270.182 153.807 269.981 154.036 269.478 154.323L272.454 159.533ZM276.318 153.484C276.318 151.42 275.425 149.635 273.774 148.396L270.174 153.196C270.237 153.244 270.27 153.278 270.284 153.294C270.291 153.303 270.295 153.308 270.297 153.311C270.298 153.312 270.298 153.313 270.298 153.313C270.299 153.313 270.299 153.314 270.299 153.314C270.299 153.314 270.299 153.314 270.299 153.314C270.299 153.315 270.299 153.316 270.3 153.317C270.301 153.32 270.303 153.326 270.305 153.337C270.31 153.358 270.318 153.405 270.318 153.484H276.318ZM273.848 148.453C272.381 147.279 270.367 146.705 268.294 146.4L267.421 152.336C269.157 152.591 269.887 152.969 270.1 153.139L273.848 148.453ZM268.303 146.401L259.903 145.141L259.013 151.075L267.413 152.335L268.303 146.401ZM259.914 145.143C255.901 144.525 253.255 143.294 251.612 141.733L247.48 146.083C250.317 148.778 254.279 150.347 259.002 151.073L259.914 145.143ZM251.64 141.76C250.056 140.215 249.186 138.172 249.186 135.34H243.186C243.186 139.564 244.556 143.233 247.452 146.056L251.64 141.76ZM249.186 135.34C249.186 133.017 249.768 131.22 250.802 129.788L245.938 126.276C244.06 128.876 243.186 131.951 243.186 135.34H249.186ZM250.793 129.8C251.94 128.229 253.572 126.951 255.824 126.013L253.516 120.475C250.391 121.777 247.824 123.691 245.947 126.264L250.793 129.8ZM255.852 126.001C258.14 125.021 260.967 124.48 264.414 124.48V118.48C260.356 118.48 256.688 119.115 253.488 120.487L255.852 126.001ZM264.414 124.48C267.321 124.48 270.142 124.887 272.886 125.7L274.59 119.948C271.286 118.969 267.891 118.48 264.414 118.48V124.48ZM272.9 125.705C275.668 126.51 278.261 127.742 280.69 129.412L284.09 124.468C281.142 122.442 277.968 120.93 274.576 119.943L272.9 125.705ZM279.98 125.153L274.436 132.629L279.256 136.203L284.8 128.727L279.98 125.153ZM278.441 131.875C275.863 130.256 273.327 129.038 270.84 128.273L269.076 134.007C270.956 134.586 273.013 135.552 275.251 136.957L278.441 131.875ZM270.84 128.273C268.376 127.515 265.867 127.132 263.322 127.132V133.132C265.257 133.132 267.172 133.421 269.076 134.007L270.84 128.273ZM263.322 127.132C260.898 127.132 258.624 127.587 256.722 128.745L259.842 133.871C260.515 133.461 261.602 133.132 263.322 133.132V127.132ZM256.671 128.777C254.711 130.025 253.434 131.95 253.434 134.416H259.434C259.434 134.273 259.461 134.228 259.475 134.206C259.497 134.169 259.59 134.031 259.893 133.839L256.671 128.777ZM253.434 134.416C253.434 136.481 254.283 138.317 255.978 139.588L259.578 134.788C259.523 134.747 259.496 134.717 259.485 134.704C259.474 134.692 259.471 134.686 259.469 134.682C259.467 134.678 259.46 134.662 259.452 134.625C259.444 134.587 259.434 134.519 259.434 134.416H253.434ZM255.978 139.588C257.526 140.749 259.726 141.298 262.016 141.592L262.779 135.64C260.702 135.374 259.822 134.971 259.578 134.788L255.978 139.588ZM261.949 141.582L270.265 142.842L271.163 136.91L262.847 135.65L261.949 141.582ZM270.295 142.847C274.28 143.409 276.946 144.636 278.642 146.25L282.778 141.902C279.882 139.148 275.884 137.575 271.133 136.905L270.295 142.847ZM278.671 146.276C280.294 147.781 281.154 149.726 281.154 152.392H287.154C287.154 148.226 285.717 144.627 282.749 141.876L278.671 146.276ZM281.154 152.392C281.154 154.542 280.526 156.388 279.256 158.039L284.012 161.697C286.102 158.98 287.154 155.842 287.154 152.392H281.154ZM279.279 158.009C277.941 159.705 276.083 161.136 273.597 162.257L276.063 167.727C279.289 166.272 281.967 164.287 283.989 161.727L279.279 158.009ZM273.642 162.237C271.225 163.28 268.365 163.84 265.002 163.84V169.84C269.031 169.84 272.723 169.168 276.018 167.747L273.642 162.237ZM307.958 148.36L304.96 148.463L305.059 151.36H307.958V148.36ZM306.53 106.78V103.78H303.425L303.532 106.883L306.53 106.78ZM318.206 106.78L321.204 106.883L321.311 103.78H318.206V106.78ZM316.778 148.36V151.36H319.677L319.776 148.463L316.778 148.36ZM307.538 164.824L305.417 166.945L305.417 166.945L307.538 164.824ZM307.538 155.164L305.417 153.043L305.417 153.043L307.538 155.164ZM317.198 155.164L315.077 157.285L315.077 157.285L317.198 155.164ZM317.198 164.824L315.077 162.703L315.077 162.703L317.198 164.824ZM310.956 148.257L309.528 106.677L303.532 106.883L304.96 148.463L310.956 148.257ZM306.53 109.78H318.206V103.78H306.53V109.78ZM315.208 106.677L313.78 148.257L319.776 148.463L321.204 106.883L315.208 106.677ZM316.778 145.36H307.958V151.36H316.778V145.36ZM312.326 163.84C311.299 163.84 310.459 163.502 309.659 162.703L305.417 166.945C307.305 168.834 309.657 169.84 312.326 169.84V163.84ZM309.659 162.703C308.86 161.903 308.522 161.063 308.522 160.036H302.522C302.522 162.705 303.528 165.057 305.417 166.945L309.659 162.703ZM308.522 160.036C308.522 158.926 308.879 158.066 309.659 157.285L305.417 153.043C303.509 154.95 302.522 157.338 302.522 160.036H308.522ZM309.659 157.285C310.459 156.486 311.299 156.148 312.326 156.148V150.148C309.657 150.148 307.305 151.154 305.417 153.043L309.659 157.285ZM312.326 156.148C313.436 156.148 314.296 156.505 315.077 157.285L319.319 153.043C317.412 151.135 315.024 150.148 312.326 150.148V156.148ZM315.077 157.285C315.857 158.066 316.214 158.926 316.214 160.036H322.214C322.214 157.338 321.227 154.95 319.319 153.043L315.077 157.285ZM316.214 160.036C316.214 161.063 315.876 161.903 315.077 162.703L319.319 166.945C321.208 165.057 322.214 162.705 322.214 160.036H316.214ZM315.077 162.703C314.296 163.483 313.436 163.84 312.326 163.84V169.84C315.024 169.84 317.412 168.853 319.319 166.945L315.077 162.703Z" fill="#003670" fill-opacity="0.81" mask="url(#path-1-outside-1_7701_17179)"/>
</g>
<path d="M114 136.5C114 141.194 110.194 145 105.5 145C100.806 145 97 141.194 97 136.5C97 131.806 100.806 128 105.5 128C110.194 128 114 131.806 114 136.5Z" fill="#D6410A"/>
<g filter="url(#filter1_d_7701_17179)">
<path d="M185.419 70.043C184.579 70.043 183.739 70.043 182.899 69.875C180.212 69.3711 177.524 68.1953 175.173 66.1797C156.024 49.5508 131.333 40.3125 105.802 40.3125C80.1025 40.3125 55.4111 49.5508 36.0946 66.3477C33.4071 68.6992 29.8798 70.043 26.1845 70.043C22.1532 70.043 18.29 68.5313 15.4345 65.6758L8.37981 58.6211C5.35637 55.5977 3.84465 51.5664 4.01262 47.3672C4.18059 43.168 6.02824 39.3047 9.05168 36.4492C35.7587 12.9336 70.1923 0 105.802 0C141.411 0 175.845 12.9336 202.552 36.4492C205.743 39.1367 207.591 43.168 207.759 47.3672C207.927 51.5664 206.247 55.5977 203.392 58.6211L196.337 65.6758C193.145 68.5313 189.45 70.043 185.419 70.043ZM105.802 6.71875C71.872 6.71875 38.9501 18.9805 13.5868 41.4883C11.9072 43 10.7314 45.1836 10.7314 47.5352C10.7314 49.8867 11.5712 52.0703 13.2509 53.75L20.3056 60.8047C21.8173 62.3164 24.0009 63.3242 26.1845 63.3242C28.2001 63.3242 30.0478 62.6524 31.5595 61.3086C52.2196 43.5039 78.4228 33.5938 105.802 33.5938C133.013 33.5938 159.216 43.3359 179.708 60.9727C181.052 62.1484 182.563 62.9883 184.075 63.1563C186.763 63.6602 189.45 62.8203 191.466 60.8047L198.52 53.75C200.2 52.0703 201.04 49.8867 201.04 47.5352C201.04 45.1836 199.864 43 198.184 41.4883C172.653 19.1484 139.731 6.71875 105.802 6.71875Z" fill="#D6410A"/>
</g>
<g filter="url(#filter2_d_7701_17179)">
<path d="M142.125 107.055C141.453 107.055 140.781 107.055 139.941 106.887C137.422 106.551 134.902 105.543 132.551 103.695C124.488 97.6484 114.746 94.457 104.5 94.457C94.2539 94.457 84.5117 97.6484 76.4492 103.695C74.0977 105.543 71.5781 106.551 69.0586 106.887C64.3555 107.559 59.6523 106.047 56.293 102.688L49.4063 95.8008C47.8945 94.2891 46.7188 92.6094 45.8789 90.7617C43.1914 84.3789 45.0391 77.3242 50.4141 73.125C65.8672 60.6953 84.5117 54.1445 104.5 54.1445C124.488 54.1445 143.133 60.6953 158.754 72.957C164.129 77.1563 165.809 84.2109 163.289 90.5937C162.617 92.4414 161.441 94.1211 159.762 95.6328L152.875 102.52C150.02 105.543 146.156 107.055 142.125 107.055ZM140.949 100.168C143.637 100.504 146.156 99.6641 148.004 97.8164L154.891 90.9297C155.73 90.0898 156.402 89.082 156.906 88.0742C158.418 84.5469 157.41 80.5156 154.387 78.1641C140.277 66.9102 122.977 60.8633 104.5 60.8633C86.0234 60.8633 68.7227 66.9102 54.4453 78.1641C51.4219 80.5156 50.582 84.3789 51.9258 88.0742C52.2617 89.082 52.9336 89.9219 53.9414 90.9297L60.8281 97.8164C62.6758 99.6641 65.3633 100.504 67.8828 100.168C69.2266 100 70.7383 99.3281 72.25 98.1523C81.4883 91.2656 92.7422 87.5703 104.332 87.5703C116.09 87.5703 127.176 91.2656 136.414 98.1523C138.094 99.3281 139.605 100 140.949 100.168Z" fill="#064F89" fill-opacity="0.6" shape-rendering="crispEdges"/>
</g>
<defs>
<filter id="filter0_d_7701_17179" x="67.024" y="103.275" width="259.19" height="90.8613" filterUnits="userSpaceOnUse" color-interpolation-filters="sRGB">
<feFlood flood-opacity="0" result="BackgroundImageFix"/>
<feColorMatrix in="SourceAlpha" type="matrix" values="0 0 0 0 0 0 0 0 0 0 0 0 0 0 0 0 0 0 127 0" result="hardAlpha"/>
<feOffset dy="4"/>
<feGaussianBlur stdDeviation="3.5"/>
<feComposite in2="hardAlpha" operator="out"/>
<feColorMatrix type="matrix" values="0 0 0 0 0 0 0 0 0 0.0666667 0 0 0 0 0.145098 0 0 0 0.63 0"/>
<feBlend mode="normal" in2="BackgroundImageFix" result="effect1_dropShadow_7701_17179"/>
<feBlend mode="normal" in="SourceGraphic" in2="effect1_dropShadow_7701_17179" result="shape"/>
</filter>
<filter id="filter1_d_7701_17179" x="0" y="0" width="211.77" height="78.043" filterUnits="userSpaceOnUse" color-interpolation-filters="sRGB">
<feFlood flood-opacity="0" result="BackgroundImageFix"/>
<feColorMatrix in="SourceAlpha" type="matrix" values="0 0 0 0 0 0 0 0 0 0 0 0 0 0 0 0 0 0 127 0" result="hardAlpha"/>
<feOffset dy="4"/>
<feGaussianBlur stdDeviation="2"/>
<feComposite in2="hardAlpha" operator="out"/>
<feColorMatrix type="matrix" values="0 0 0 0 0.839216 0 0 0 0 0.254902 0 0 0 0 0.0392157 0 0 0 1 0"/>
<feBlend mode="normal" in2="BackgroundImageFix" result="effect1_dropShadow_7701_17179"/>
<feBlend mode="normal" in="SourceGraphic" in2="effect1_dropShadow_7701_17179" result="shape"/>
</filter>
<filter id="filter2_d_7701_17179" x="34.6569" y="51.1445" width="139.78" height="72.9102" filterUnits="userSpaceOnUse" color-interpolation-filters="sRGB">
<feFlood flood-opacity="0" result="BackgroundImageFix"/>
<feColorMatrix in="SourceAlpha" type="matrix" values="0 0 0 0 0 0 0 0 0 0 0 0 0 0 0 0 0 0 127 0" result="hardAlpha"/>
<feOffset dy="7"/>
<feGaussianBlur stdDeviation="5"/>
<feComposite in2="hardAlpha" operator="out"/>
<feColorMatrix type="matrix" values="0 0 0 0 0.121569 0 0 0 0 0.380392 0 0 0 0 0.584314 0 0 0 0.51 0"/>
<feBlend mode="normal" in2="BackgroundImageFix" result="effect1_dropShadow_7701_17179"/>
<feBlend mode="normal" in="SourceGraphic" in2="effect1_dropShadow_7701_17179" result="shape"/>
</filter>
</defs>
</svg>
