<svg width="24" height="24" viewBox="0 0 24 24" fill="none" xmlns="http://www.w3.org/2000/svg">
<path d="M24 11.9423C24 12.4615 23.5385 12.8654 23.0769 12.8654H12.9231V23.0192C12.9231 23.5385 12.4615 24 12 24C11.4808 24 11.0769 23.5385 11.0769 23.0192V12.8654H0.923077C0.403846 12.8654 0 12.4615 0 12C0 11.4808 0.403846 11.0192 0.923077 11.0192H11.0769V0.865385C11.0769 0.403846 11.4808 0 12 0C12.4615 0 12.9231 0.403846 12.9231 0.865385V11.0192H23.0769C23.5385 11.0192 24 11.4808 24 11.9423Z" fill="#D6410A"/>
</svg>
