<svg width="18" height="16" viewBox="0 0 18 16" fill="none" xmlns="http://www.w3.org/2000/svg">
<path d="M12.3958 5.08333C12.3958 5.29427 12.2201 5.47005 12.0208 5.47005H10.3333V7.15755C10.3333 7.35677 10.1576 7.52083 9.95833 7.52083C9.7474 7.52083 9.58333 7.35677 9.58333 7.15755V5.47005H7.89583C7.6849 5.47005 7.52083 5.29427 7.52083 5.08333C7.52083 4.88411 7.6849 4.72005 7.89583 4.72005H9.58333V3.03255C9.58333 2.82161 9.7474 2.64583 9.95833 2.64583C10.1576 2.64583 10.3333 2.82161 10.3333 3.03255V4.72005H12.0208C12.2201 4.70833 12.3958 4.88411 12.3958 5.08333Z" fill="#064F89"/>
<path d="M2.5 0C2.71875 0 2.90625 0.1875 2.96875 0.40625L3.125 1H16.9063C17.5625 1 18.0625 1.65625 17.875 2.28125L16.1875 8.28125C16.0625 8.71875 15.6875 9 15.2188 9H4.9375L5.375 11H15.5C15.75 11 16 11.25 16 11.5C16 11.7813 15.75 12 15.5 12H5C4.75 12 4.5625 11.8438 4.5 11.625L2.09375 1H0.5C0.21875 1 0 0.78125 0 0.5C0 0.25 0.21875 0 0.5 0H2.5ZM3.34375 2L4.6875 8H15.2188L16.9063 2H3.34375ZM4 14.25C4 13.3125 4.78125 12.5 5.75 12.5C6.6875 12.5 7.5 13.3125 7.5 14.25C7.5 15.2188 6.6875 16 5.75 16C4.78125 16 4 15.2188 4 14.25ZM5.75 15C6.15625 15 6.5 14.6875 6.5 14.25C6.5 13.8438 6.15625 13.5 5.75 13.5C5.3125 13.5 5 13.8438 5 14.25C5 14.6875 5.3125 15 5.75 15ZM16 14.25C16 15.2188 15.1875 16 14.25 16C13.2813 16 12.5 15.2188 12.5 14.25C12.5 13.3125 13.2813 12.5 14.25 12.5C15.1875 12.5 16 13.3125 16 14.25ZM14.25 13.5C13.8125 13.5 13.5 13.8438 13.5 14.25C13.5 14.6875 13.8125 15 14.25 15C14.6563 15 15 14.6875 15 14.25C15 13.8438 14.6563 13.5 14.25 13.5Z" fill="#064F89"/>
</svg>
