<svg width="28" height="24" viewBox="0 0 28 24" fill="none" xmlns="http://www.w3.org/2000/svg">
<path d="M3.65625 1.5H13.5V2.25H3.84375L6.60938 12.75H22.8281C23.1562 12.75 23.4844 12.5625 23.5781 12.2344L26.1094 3.23438C26.25 2.76562 25.875 2.25 25.3594 2.25H18V1.5H25.3594C26.3438 1.5 27.0938 2.48438 26.8125 3.42188L24.2812 12.4219C24.0938 13.0781 23.5312 13.5 22.8281 13.5H6.79688L7.78125 17.25H23.25C23.4375 17.25 23.625 17.4375 23.625 17.625C23.625 17.8594 23.4375 18 23.25 18H7.45312C7.3125 18 7.17188 17.9062 7.125 17.7188L2.67188 0.75H0.375C0.140625 0.75 0 0.609375 0 0.375C0 0.1875 0.140625 0 0.375 0H3C3.14062 0 3.28125 0.140625 3.32812 0.28125L3.65625 1.5ZM6 21.75C6 20.5312 6.98438 19.5 8.25 19.5C9.46875 19.5 10.5 20.5312 10.5 21.75C10.5 23.0156 9.46875 24 8.25 24C6.98438 24 6 23.0156 6 21.75ZM8.25 23.25C9.04688 23.25 9.75 22.5938 9.75 21.75C9.75 20.9531 9.04688 20.25 8.25 20.25C7.40625 20.25 6.75 20.9531 6.75 21.75C6.75 22.5938 7.40625 23.25 8.25 23.25ZM24 21.75C24 23.0156 22.9688 24 21.75 24C20.4844 24 19.5 23.0156 19.5 21.75C19.5 20.5312 20.4844 19.5 21.75 19.5C22.9688 19.5 24 20.5312 24 21.75ZM21.75 20.25C20.9062 20.25 20.25 20.9531 20.25 21.75C20.25 22.5938 20.9062 23.25 21.75 23.25C22.5469 23.25 23.25 22.5938 23.25 21.75C23.25 20.9531 22.5469 20.25 21.75 20.25ZM16.125 8.48438L19.2188 5.39062C19.3594 5.25 19.5938 5.25 19.7344 5.39062C19.875 5.53125 19.875 5.76562 19.7344 5.90625L15.9844 9.65625C15.8438 9.79688 15.6094 9.79688 15.4688 9.65625L11.7188 5.90625C11.5781 5.76562 11.5781 5.53125 11.7188 5.39062C11.8594 5.25 12.0938 5.25 12.2344 5.39062L15.375 8.48438V0.375C15.375 0.1875 15.5156 0 15.75 0C15.9375 0 16.125 0.1875 16.125 0.375V8.48438Z" fill="black"/>
</svg>
