<svg width="18" height="16" viewBox="0 0 18 16" fill="none" xmlns="http://www.w3.org/2000/svg">
<path d="M8.29167 4.1875C8.1276 4.1875 8 4.0599 8 3.89583C8 3.74089 8.1276 3.60417 8.29167 3.60417H11.6641L11.1445 3.08464C11.026 2.97526 11.026 2.78385 11.1445 2.67448C11.2539 2.55599 11.4453 2.55599 11.5547 2.67448L12.5755 3.69531C12.694 3.80469 12.694 3.99609 12.5755 4.10547L11.5547 5.1263C11.5 5.18099 11.4271 5.20833 11.3542 5.20833C11.2721 5.20833 11.1992 5.18099 11.1445 5.1263C11.026 5.01693 11.026 4.82552 11.1445 4.71615L11.6641 4.1875H8.29167ZM12.375 5.64583C12.5299 5.64583 12.6667 5.78255 12.6667 5.9375C12.6667 6.10156 12.5299 6.22917 12.375 6.22917H8.99349L9.51302 6.75781C9.63151 6.86719 9.63151 7.05859 9.51302 7.16797C9.45833 7.22266 9.38542 7.25 9.3125 7.25C9.23047 7.25 9.15755 7.22266 9.10287 7.16797L8.08203 6.14714C7.96354 6.03776 7.96354 5.84635 8.08203 5.73698L9.10287 4.71615C9.21224 4.59766 9.40365 4.59766 9.51302 4.71615C9.63151 4.82552 9.63151 5.01693 9.51302 5.1263L8.99349 5.64583H12.375Z" fill="#313131"/>
<path d="M2.5 0C2.71875 0 2.90625 0.1875 2.96875 0.40625L3.125 1H16.9062C17.5625 1 18.0625 1.65625 17.875 2.28125L16.1875 8.28125C16.0625 8.71875 15.6875 9 15.2188 9H4.9375L5.375 11H15.5C15.75 11 16 11.25 16 11.5C16 11.7812 15.75 12 15.5 12H5C4.75 12 4.5625 11.8438 4.5 11.625L2.09375 1H0.5C0.21875 1 0 0.78125 0 0.5C0 0.25 0.21875 0 0.5 0H2.5ZM3.34375 2L4.6875 8H15.2188L16.9062 2H3.34375ZM4 14.25C4 13.3125 4.78125 12.5 5.75 12.5C6.6875 12.5 7.5 13.3125 7.5 14.25C7.5 15.2188 6.6875 16 5.75 16C4.78125 16 4 15.2188 4 14.25ZM5.75 15C6.15625 15 6.5 14.6875 6.5 14.25C6.5 13.8438 6.15625 13.5 5.75 13.5C5.3125 13.5 5 13.8438 5 14.25C5 14.6875 5.3125 15 5.75 15ZM16 14.25C16 15.2188 15.1875 16 14.25 16C13.2812 16 12.5 15.2188 12.5 14.25C12.5 13.3125 13.2812 12.5 14.25 12.5C15.1875 12.5 16 13.3125 16 14.25ZM14.25 13.5C13.8125 13.5 13.5 13.8438 13.5 14.25C13.5 14.6875 13.8125 15 14.25 15C14.6562 15 15 14.6875 15 14.25C15 13.8438 14.6562 13.5 14.25 13.5Z" fill="#313131"/>
</svg>
