<svg width="24" height="21" viewBox="0 0 24 21" fill="none" xmlns="http://www.w3.org/2000/svg">
<path d="M24 10.2412C24 10.7228 23.5719 11.0974 23.0903 11.0974H2.91639L10.408 19.1241C10.7291 19.4452 10.7291 19.9803 10.3545 20.3014C10.194 20.4619 9.97993 20.5154 9.76589 20.5154C9.49833 20.5154 9.28428 20.4619 9.12375 20.2479L0.240803 10.8298C-0.0802676 10.5087 -0.0802676 10.0271 0.240803 9.70607L9.12375 0.288012C9.44482 -0.0865702 9.97993 -0.0865702 10.3545 0.2345C10.7291 0.55557 10.7291 1.09069 10.408 1.41176L2.91639 9.385H23.0903C23.5719 9.385 24 9.8131 24 10.2412Z" fill="#313131"/>
</svg>
