<svg width="16" height="16" viewBox="0 0 16 16" fill="none" xmlns="http://www.w3.org/2000/svg">
<path d="M5.625 5.65625C5.8125 5.46875 6.15625 5.46875 6.34375 5.65625L8 7.3125L9.625 5.65625C9.8125 5.46875 10.1562 5.46875 10.3438 5.65625C10.5312 5.84375 10.5312 6.1875 10.3438 6.375L8.6875 8L10.3438 9.65625C10.5312 9.84375 10.5312 10.1875 10.3438 10.375C10.1562 10.5625 9.8125 10.5625 9.625 10.375L8 8.71875L6.34375 10.375C6.15625 10.5625 5.8125 10.5625 5.625 10.375C5.4375 10.1875 5.4375 9.84375 5.625 9.65625L7.28125 8L5.625 6.375C5.4375 6.1875 5.4375 5.84375 5.625 5.65625ZM16 8C16 12.4375 12.4062 16 8 16C3.5625 16 0 12.4375 0 8C0 3.59375 3.5625 0 8 0C12.4062 0 16 3.59375 16 8ZM8 1C4.125 1 1 4.15625 1 8C1 11.875 4.125 15 8 15C11.8438 15 15 11.875 15 8C15 4.15625 11.8438 1 8 1Z" fill="#313131"/>
</svg>
