<svg width="19" height="16" viewBox="0 0 19 16" fill="none" xmlns="http://www.w3.org/2000/svg">
<path d="M12.9384 5.08333C12.9384 5.29427 12.7626 5.47005 12.5634 5.47005H10.8759V7.15755C10.8759 7.35677 10.7001 7.52083 10.5009 7.52083C10.29 7.52083 10.1259 7.35677 10.1259 7.15755V5.47005H8.43842C8.22748 5.47005 8.06342 5.29427 8.06342 5.08333C8.06342 4.88411 8.22748 4.72005 8.43842 4.72005H10.1259V3.03255C10.1259 2.82161 10.29 2.64583 10.5009 2.64583C10.7001 2.64583 10.8759 2.82161 10.8759 3.03255V4.72005H12.5634C12.7626 4.70833 12.9384 4.88411 12.9384 5.08333Z" fill="white"/>
<path d="M3.04259 0C3.26134 0 3.44884 0.1875 3.51134 0.40625L3.66759 1H17.4488C18.1051 1 18.6051 1.65625 18.4176 2.28125L16.7301 8.28125C16.6051 8.71875 16.2301 9 15.7613 9H5.48009L5.91759 11H16.0426C16.2926 11 16.5426 11.25 16.5426 11.5C16.5426 11.7812 16.2926 12 16.0426 12H5.54259C5.29259 12 5.10509 11.8438 5.04259 11.625L2.63634 1H1.04259C0.761337 1 0.542587 0.78125 0.542587 0.5C0.542587 0.25 0.761337 0 1.04259 0H3.04259ZM3.88634 2L5.23009 8H15.7613L17.4488 2H3.88634ZM4.54259 14.25C4.54259 13.3125 5.32384 12.5 6.29259 12.5C7.23009 12.5 8.04259 13.3125 8.04259 14.25C8.04259 15.2188 7.23009 16 6.29259 16C5.32384 16 4.54259 15.2188 4.54259 14.25ZM6.29259 15C6.69884 15 7.04259 14.6875 7.04259 14.25C7.04259 13.8438 6.69884 13.5 6.29259 13.5C5.85509 13.5 5.54259 13.8438 5.54259 14.25C5.54259 14.6875 5.85509 15 6.29259 15ZM16.5426 14.25C16.5426 15.2188 15.7301 16 14.7926 16C13.8238 16 13.0426 15.2188 13.0426 14.25C13.0426 13.3125 13.8238 12.5 14.7926 12.5C15.7301 12.5 16.5426 13.3125 16.5426 14.25ZM14.7926 13.5C14.3551 13.5 14.0426 13.8438 14.0426 14.25C14.0426 14.6875 14.3551 15 14.7926 15C15.1988 15 15.5426 14.6875 15.5426 14.25C15.5426 13.8438 15.1988 13.5 14.7926 13.5Z" fill="white"/>
</svg>
