<svg width="18" height="21" viewBox="0 0 18 21" fill="none" xmlns="http://www.w3.org/2000/svg">
<path d="M6.25 16.125C6.25 16.4766 5.9375 16.75 5.625 16.75C5.27344 16.75 5 16.4766 5 16.125V8C5 7.6875 5.27344 7.375 5.625 7.375C5.9375 7.375 6.25 7.6875 6.25 8V16.125ZM9.375 16.125C9.375 16.4766 9.0625 16.75 8.75 16.75C8.39844 16.75 8.125 16.4766 8.125 16.125V8C8.125 7.6875 8.39844 7.375 8.75 7.375C9.0625 7.375 9.375 7.6875 9.375 8V16.125ZM12.5 16.125C12.5 16.4766 12.1875 16.75 11.875 16.75C11.5234 16.75 11.25 16.4766 11.25 16.125V8C11.25 7.6875 11.5234 7.375 11.875 7.375C12.1875 7.375 12.5 7.6875 12.5 8V16.125ZM12.3828 1.47656L13.8281 3.625H16.5625C17.0703 3.625 17.5 4.05469 17.5 4.5625C17.5 5.10938 17.0703 5.5 16.5625 5.5H16.25V17.375C16.25 19.1328 14.8438 20.5 13.125 20.5H4.375C2.61719 20.5 1.25 19.1328 1.25 17.375V5.5H0.9375C0.390625 5.5 0 5.10938 0 4.5625C0 4.05469 0.390625 3.625 0.9375 3.625H3.63281L5.07812 1.47656C5.46875 0.890625 6.17188 0.5 6.91406 0.5H10.5469C11.2891 0.5 11.9922 0.890625 12.3828 1.47656ZM5.89844 3.625H11.5625L10.8203 2.53125C10.7812 2.45312 10.6641 2.375 10.5469 2.375H6.91406C6.79688 2.375 6.67969 2.45312 6.64062 2.53125L5.89844 3.625ZM3.125 17.375C3.125 18.0781 3.67188 18.625 4.375 18.625H13.125C13.7891 18.625 14.375 18.0781 14.375 17.375V5.5H3.125V17.375Z" fill="white"/>
</svg>
