<svg width="24" height="24" viewBox="0 0 24 24" fill="none" xmlns="http://www.w3.org/2000/svg">
<path d="M18.0938 0.878906C19.2656 -0.292969 21.1875 -0.292969 22.3594 0.878906L22.9219 1.44141C24.0938 2.61328 24.0938 4.53516 22.9219 5.70703L12.6094 16.0195C12.1875 16.4414 11.6719 16.6758 11.1562 16.8164L6.89062 17.8008C6.65625 17.8477 6.375 17.8008 6.1875 17.6133C6 17.4258 5.95312 17.1445 6 16.9102L6.98438 12.6445C7.125 12.1289 7.35938 11.6133 7.78125 11.1914L18.0938 0.878906ZM21.2812 1.95703C20.7188 1.34766 19.7344 1.34766 19.1719 1.95703L17.9062 3.17578L20.625 5.89453L21.8438 4.62891C22.4531 4.06641 22.4531 3.08203 21.8438 2.51953L21.2812 1.95703ZM8.4375 12.9727L7.73438 16.0664L10.7812 15.3633C11.0625 15.3164 11.3438 15.1758 11.5312 14.9414L19.5469 6.92578L16.875 4.25391L8.85938 12.2695C8.625 12.457 8.48438 12.7383 8.4375 12.9727ZM9.75 2.80078C10.125 2.80078 10.5 3.17578 10.5 3.55078C10.5 3.97266 10.125 4.30078 9.75 4.30078H3.75C2.48438 4.30078 1.5 5.33203 1.5 6.55078V20.0508C1.5 21.3164 2.48438 22.3008 3.75 22.3008H17.25C18.4688 22.3008 19.5 21.3164 19.5 20.0508V14.0508C19.5 13.6758 19.8281 13.3008 20.25 13.3008C20.625 13.3008 21 13.6758 21 14.0508V20.0508C21 22.1602 19.3125 23.8008 17.25 23.8008H3.75C1.64062 23.8008 0 22.1602 0 20.0508V6.55078C0 4.48828 1.64062 2.80078 3.75 2.80078H9.75Z" fill="#313131" fill-opacity="0.75"/>
</svg>
