<svg width="184" height="184" viewBox="0 0 184 184" fill="none" xmlns="http://www.w3.org/2000/svg">
<g clip-path="url(#clip0_4739_19151)">
<path fill-rule="evenodd" clip-rule="evenodd" d="M97.3721 31.7737C95.0547 27.7421 88.9453 27.7421 86.6279 31.7737L23.7702 140.923C23.7693 140.924 23.771 140.922 23.7702 140.923C21.6881 144.565 24.237 149.5 29.1381 149.5H154.862C159.763 149.5 162.314 144.569 160.233 140.928C160.232 140.926 160.233 140.929 160.233 140.928L97.3721 31.7737ZM107.34 26.0386C100.6 14.3204 83.3996 14.3205 76.66 26.0387C76.6592 26.04 76.6607 26.0374 76.66 26.0387L13.7981 135.195L13.7917 135.206C7.06641 146.945 15.9 161 29.1381 161H154.862C168.1 161 176.934 146.945 170.208 135.206L107.34 26.0386C107.341 26.0399 107.339 26.0373 107.34 26.0386Z" fill="#E10505"/>
<path fill-rule="evenodd" clip-rule="evenodd" d="M92 69C95.1756 69 97.75 71.5744 97.75 74.75V103.5C97.75 106.676 95.1756 109.25 92 109.25C88.8244 109.25 86.25 106.676 86.25 103.5V74.75C86.25 71.5744 88.8244 69 92 69Z" fill="#E10505"/>
<path d="M92 138C96.7635 138 100.625 134.138 100.625 129.375C100.625 124.612 96.7635 120.75 92 120.75C87.2365 120.75 83.375 124.612 83.375 129.375C83.375 134.138 87.2365 138 92 138Z" fill="#E10505"/>
</g>
<defs>
<clipPath id="clip0_4739_19151">
<rect width="184" height="184" fill="white"/>
</clipPath>
</defs>
</svg>
