<svg width="21" height="22" viewBox="0 0 21 22" fill="none" xmlns="http://www.w3.org/2000/svg">
<path d="M4.59375 10.7656L10.2188 5.14062C10.3594 5 10.5938 5 10.7344 5.14062C10.875 5.28125 10.875 5.51562 10.7344 5.65625L5.76562 10.625H16.125C16.3125 10.625 16.5 10.8125 16.5 11.0469C16.5 11.2344 16.3125 11.375 16.125 11.375H5.76562L10.7344 16.3906C10.875 16.5312 10.875 16.7656 10.7344 16.9062C10.6875 17 10.5938 17 10.5 17C10.3594 17 10.2656 17 10.2188 16.9062L4.59375 11.2812C4.45312 11.1406 4.45312 10.9062 4.59375 10.7656ZM0 3.5C0 1.85938 1.3125 0.5 3 0.5H18C19.6406 0.5 21 1.85938 21 3.5V18.5C21 20.1875 19.6406 21.5 18 21.5H3C1.3125 21.5 0 20.1875 0 18.5V3.5ZM18 1.25H3C1.73438 1.25 0.75 2.28125 0.75 3.5V18.5C0.75 19.7656 1.73438 20.75 3 20.75H18C19.2188 20.75 20.25 19.7656 20.25 18.5V3.5C20.25 2.28125 19.2188 1.25 18 1.25Z" fill="black"/>
</svg>
