<svg width="25" height="20" viewBox="0 0 25 20" fill="none" xmlns="http://www.w3.org/2000/svg">
<path d="M4.5625 6.26562C4.42188 6.40625 4.23438 6.5 4 6.5C3.8125 6.54688 3.57812 6.45312 3.4375 6.3125L1.1875 4.0625C0.90625 3.78125 0.90625 3.26562 1.1875 2.98438C1.46875 2.70312 1.98438 2.70312 2.26562 2.98438L3.90625 4.67188L7.14062 0.78125C7.42188 0.453125 7.89062 0.453125 8.21875 0.6875C8.54688 0.96875 8.54688 1.4375 8.3125 1.76562L4.5625 6.26562ZM4.5625 13.7656C4.42188 13.9062 4.23438 14 4 14C3.8125 14.0469 3.57812 13.9531 3.4375 13.8125L1.1875 11.5625C0.90625 11.2812 0.90625 10.7656 1.1875 10.4844C1.46875 10.2031 1.98438 10.2031 2.26562 10.4844L3.90625 12.1719L7.14062 8.28125C7.42188 7.95312 7.89062 7.95312 8.21875 8.1875C8.54688 8.46875 8.54688 8.9375 8.3125 9.26562L4.5625 13.7656ZM9.95312 3.5C9.95312 3.125 10.3281 2.75 10.7031 2.75H24.25C24.625 2.75 25 3.125 25 3.5C25 3.92188 24.625 4.25 24.25 4.25H10.7031C10.3281 4.25 9.95312 3.92188 9.95312 3.5ZM9.95312 11C9.95312 10.625 10.3281 10.25 10.7031 10.25H24.25C24.625 10.25 25 10.625 25 11C25 11.4219 24.625 11.75 24.25 11.75H10.7031C10.3281 11.75 9.95312 11.4219 9.95312 11ZM8.45312 18.5C8.45312 18.125 8.82812 17.75 9.20312 17.75H24.25C24.625 17.75 25 18.125 25 18.5C25 18.9219 24.625 19.25 24.25 19.25H9.20312C8.82812 19.25 8.45312 18.9219 8.45312 18.5ZM3.95312 20C3.15625 20 2.45312 19.3438 2.45312 18.5C2.45312 17.7031 3.15625 17 3.95312 17C4.79688 17 5.45312 17.7031 5.45312 18.5C5.45312 19.3438 4.79688 20 3.95312 20Z" fill="black"/>
</svg>
