<svg width="21" height="24" viewBox="0 0 21 24" fill="none" xmlns="http://www.w3.org/2000/svg">
<path d="M10.5 12C7.17188 12 4.5 9.32812 4.5 6C4.5 2.71875 7.17188 0 10.5 0C13.7812 0 16.5 2.71875 16.5 6C16.5 9.32812 13.7812 12 10.5 12ZM10.5 0.75C7.59375 0.75 5.25 3.14062 5.25 6C5.25 8.90625 7.59375 11.25 10.5 11.25C13.3594 11.25 15.75 8.90625 15.75 6C15.75 3.14062 13.3594 0.75 10.5 0.75ZM12.8438 14.25C17.3438 14.25 21 17.9062 21 22.4062C21 23.2969 20.25 24 19.3594 24H1.59375C0.703125 24 0 23.2969 0 22.4062C0 17.9062 3.60938 14.25 8.10938 14.25H12.8438ZM19.3594 23.25C19.8281 23.25 20.25 22.875 20.25 22.4062C20.25 18.3281 16.9219 15 12.8438 15H8.10938C4.03125 15 0.75 18.3281 0.75 22.4062C0.75 22.875 1.125 23.25 1.59375 23.25H19.3594Z" fill="black"/>
</svg>
