<svg width="18" height="17" viewBox="0 0 18 17" fill="none" xmlns="http://www.w3.org/2000/svg">
<path d="M16.4609 8.78906C16.8125 8.82812 17.0469 9.14062 17.0078 9.49219C16.3438 13.4375 12.9453 16.25 9 16.25C6.69531 16.25 4.58594 15.2734 3.0625 13.6719L1.30469 15.4688C1.1875 15.5859 1.03125 15.625 0.875 15.625C0.757812 15.625 0.679688 15.625 0.601562 15.5859C0.367188 15.5078 0.25 15.2734 0.25 15V10C0.25 9.6875 0.523438 9.375 0.875 9.375H5.875C6.10938 9.375 6.34375 9.53125 6.42188 9.76562C6.53906 10 6.46094 10.2734 6.26562 10.4688L3.92188 12.8125C5.21094 14.1797 7.00781 15 8.96094 15C12.3594 15 15.2109 12.6172 15.7188 9.29688C15.7969 8.94531 16.1094 8.71094 16.4609 8.78906ZM1.5 13.5156L4.35156 10.625H1.5V13.5156ZM17.3594 0.703125C17.5938 0.78125 17.75 1.01562 17.75 1.25V6.25C17.75 6.60156 17.4375 6.875 17.125 6.875H12.125C11.8516 6.875 11.6172 6.75781 11.5391 6.52344C11.4219 6.28906 11.5 6.01562 11.6562 5.82031L14 3.47656C12.75 2.10938 10.9141 1.25 9 1.25C5.60156 1.25 2.75 3.67188 2.20312 6.99219C2.125 7.34375 1.8125 7.57812 1.5 7.5C1.14844 7.46094 0.914062 7.14844 0.953125 6.79688C1.61719 2.85156 5.01562 0 9 0C11.2656 0 13.375 1.01562 14.8984 2.61719L16.6562 0.820312C16.7734 0.703125 16.9297 0.625 17.125 0.625C17.2031 0.625 17.2812 0.664062 17.3594 0.703125ZM16.5 5.625V2.77344L13.6094 5.625H16.5Z" fill="#064F89"/>
</svg>
