<!-- <svg width="32" height="32" viewBox="0 0 32 32" fill="none" xmlns="http://www.w3.org/2000/svg">
<path d="M7.68555 7.17993C7.95898 7.17993 8.19336 7.41431 8.27148 7.68774L8.4668 8.42993H25.6934C26.5137 8.42993 27.1387 9.25024 26.9043 10.0315L24.7949 17.5315C24.6387 18.0784 24.1699 18.4299 23.584 18.4299H10.7324L11.2793 20.9299H23.9355C24.248 20.9299 24.5605 21.2424 24.5605 21.5549C24.5605 21.9065 24.248 22.1799 23.9355 22.1799H10.8105C10.498 22.1799 10.2637 21.9846 10.1855 21.7112L7.17773 8.42993H5.18555C4.83398 8.42993 4.56055 8.15649 4.56055 7.80493C4.56055 7.49243 4.83398 7.17993 5.18555 7.17993H7.68555ZM8.74023 9.67993L10.4199 17.1799H23.584L25.6934 9.67993H8.74023ZM9.56055 24.9924C9.56055 23.8206 10.5371 22.8049 11.748 22.8049C12.9199 22.8049 13.9355 23.8206 13.9355 24.9924C13.9355 26.2034 12.9199 27.1799 11.748 27.1799C10.5371 27.1799 9.56055 26.2034 9.56055 24.9924ZM11.748 25.9299C12.2559 25.9299 12.6855 25.5393 12.6855 24.9924C12.6855 24.4846 12.2559 24.0549 11.748 24.0549C11.2012 24.0549 10.8105 24.4846 10.8105 24.9924C10.8105 25.5393 11.2012 25.9299 11.748 25.9299ZM24.5605 24.9924C24.5605 26.2034 23.5449 27.1799 22.373 27.1799C21.1621 27.1799 20.1855 26.2034 20.1855 24.9924C20.1855 23.8206 21.1621 22.8049 22.373 22.8049C23.5449 22.8049 24.5605 23.8206 24.5605 24.9924ZM22.373 24.0549C21.8262 24.0549 21.4355 24.4846 21.4355 24.9924C21.4355 25.5393 21.8262 25.9299 22.373 25.9299C22.8809 25.9299 23.3105 25.5393 23.3105 24.9924C23.3105 24.4846 22.8809 24.0549 22.373 24.0549Z" fill="#313131"/>
<path fill-rule="evenodd" clip-rule="evenodd" d="M19.4051 11.8644C19.5876 11.6819 19.5876 11.386 19.4051 11.2035C19.2227 11.021 18.9268 11.021 18.7443 11.2035L17.2056 12.7422L15.6668 11.2035C15.4844 11.021 15.1885 11.021 15.006 11.2035C14.8235 11.386 14.8235 11.6819 15.006 11.8644L16.5447 13.4031L15.006 14.9418C14.8236 15.1243 14.8236 15.4201 15.006 15.6026C15.1885 15.7851 15.4844 15.7851 15.6669 15.6026L17.2056 14.0639L18.7443 15.6026C18.9267 15.7851 19.2226 15.7851 19.4051 15.6026C19.5876 15.4201 19.5876 15.1243 19.4051 14.9418L17.8664 13.4031L19.4051 11.8644Z" fill="#313131"/>
</svg> -->
<svg width="32" height="32" viewBox="0 0 32 32" fill="none" xmlns="http://www.w3.org/2000/svg">
  <path d="M7.68555 7.17993C7.95898 7.17993 8.19336 7.41431 8.27148 7.68774L8.4668 8.42993H25.6934C26.5137 8.42993 27.1387 9.25024 26.9043 10.0315L24.7949 17.5315C24.6387 18.0784 24.1699 18.4299 23.584 18.4299H10.7324L11.2793 20.9299H23.9355C24.248 20.9299 24.5605 21.2424 24.5605 21.5549C24.5605 21.9065 24.248 22.1799 23.9355 22.1799H10.8105C10.498 22.1799 10.2637 21.9846 10.1855 21.7112L7.17773 8.42993H5.18555C4.83398 8.42993 4.56055 8.15649 4.56055 7.80493C4.56055 7.49243 4.83398 7.17993 5.18555 7.17993H7.68555ZM8.74023 9.67993L10.4199 17.1799H23.584L25.6934 9.67993H8.74023ZM9.56055 24.9924C9.56055 23.8206 10.5371 22.8049 11.748 22.8049C12.9199 22.8049 13.9355 23.8206 13.9355 24.9924C13.9355 26.2034 12.9199 27.1799 11.748 27.1799C10.5371 27.1799 9.56055 26.2034 9.56055 24.9924ZM11.748 25.9299C12.2559 25.9299 12.6855 25.5393 12.6855 24.9924C12.6855 24.4846 12.2559 24.0549 11.748 24.0549C11.2012 24.0549 10.8105 24.4846 10.8105 24.9924C10.8105 25.5393 11.2012 25.9299 11.748 25.9299ZM24.5605 24.9924C24.5605 26.2034 23.5449 27.1799 22.373 27.1799C21.1621 27.1799 20.1855 26.2034 20.1855 24.9924C20.1855 23.8206 21.1621 22.8049 22.373 22.8049C23.5449 22.8049 24.5605 23.8206 24.5605 24.9924ZM22.373 24.0549C21.8262 24.0549 21.4355 24.4846 21.4355 24.9924C21.4355 25.5393 21.8262 25.9299 22.373 25.9299C22.8809 25.9299 23.3105 25.5393 23.3105 24.9924C23.3105 24.4846 22.8809 24.0549 22.373 24.0549Z" fill="#D6410A"/>
  <path fill-rule="evenodd" clip-rule="evenodd" d="M19.4051 11.8644C19.5876 11.6819 19.5876 11.386 19.4051 11.2035C19.2227 11.021 18.9268 11.021 18.7443 11.2035L17.2056 12.7422L15.6668 11.2035C15.4844 11.021 15.1885 11.021 15.006 11.2035C14.8235 11.386 14.8235 11.6819 15.006 11.8644L16.5447 13.4031L15.006 14.9418C14.8236 15.1243 14.8236 15.4201 15.006 15.6026C15.1885 15.7851 15.4844 15.7851 15.6669 15.6026L17.2056 14.0639L18.7443 15.6026C18.9267 15.7851 19.2226 15.7851 19.4051 15.6026C19.5876 15.4201 19.5876 15.1243 19.4051 14.9418L17.8664 13.4031L19.4051 11.8644Z" fill="#D6410A"/>
</svg>
