<svg width="24" height="22" viewBox="0 0 24 22" fill="none" xmlns="http://www.w3.org/2000/svg">
<path d="M2 1.33333C1.625 1.33333 1.33333 1.66667 1.33333 2V6C1.33333 6.375 1 6.66667 0.666667 6.66667C0.291667 6.66667 0 6.375 0 6V2C0 0.916667 0.875 0 2 0H6C6.33333 0 6.66667 0.333333 6.66667 0.666667C6.66667 1.04167 6.33333 1.33333 6 1.33333H2ZM6.66667 6V15.3333C6.66667 15.7083 6.33333 16 6 16C5.625 16 5.33333 15.7083 5.33333 15.3333V6C5.33333 5.66667 5.625 5.33333 6 5.33333C6.33333 5.33333 6.66667 5.66667 6.66667 6ZM8 6C8 5.66667 8.29167 5.33333 8.66667 5.33333C9 5.33333 9.33333 5.66667 9.33333 6V15.3333C9.33333 15.7083 9 16 8.66667 16C8.29167 16 8 15.7083 8 15.3333V6ZM17.3333 6C17.3333 5.66667 17.625 5.33333 18 5.33333C18.3333 5.33333 18.6667 5.66667 18.6667 6V15.3333C18.6667 15.7083 18.3333 16 18 16C17.625 16 17.3333 15.7083 17.3333 15.3333V6ZM12 6V15.3333C12 15.7083 11.6667 16 11.3333 16C10.9583 16 10.6667 15.7083 10.6667 15.3333V6C10.6667 5.66667 10.9583 5.33333 11.3333 5.33333C11.6667 5.33333 12 5.66667 12 6ZM14 6C14 5.66667 14.2917 5.33333 14.6667 5.33333C15 5.33333 15.3333 5.66667 15.3333 6V15.3333C15.3333 15.7083 15 16 14.6667 16C14.2917 16 14 15.7083 14 15.3333V6ZM22.6667 2C22.6667 1.66667 22.3333 1.33333 22 1.33333H18C17.625 1.33333 17.3333 1.04167 17.3333 0.666667C17.3333 0.333333 17.625 0 18 0H22C23.0833 0 24 0.916667 24 2V6C24 6.375 23.6667 6.66667 23.3333 6.66667C22.9583 6.66667 22.6667 6.375 22.6667 6V2ZM6 20C6.33333 20 6.66667 20.3333 6.66667 20.6667C6.66667 21.0417 6.33333 21.3333 6 21.3333H2C0.875 21.3333 0 20.4583 0 19.3333V15.3333C0 15 0.291667 14.6667 0.666667 14.6667C1 14.6667 1.33333 15 1.33333 15.3333V19.3333C1.33333 19.7083 1.625 20 2 20H6ZM22.6667 15.3333C22.6667 15 22.9583 14.6667 23.3333 14.6667C23.6667 14.6667 24 15 24 15.3333V19.3333C24 20.4583 23.0833 21.3333 22 21.3333H18C17.625 21.3333 17.3333 21.0417 17.3333 20.6667C17.3333 20.3333 17.625 20 18 20H22C22.3333 20 22.6667 19.7083 22.6667 19.3333V15.3333Z" fill="#313131" fill-opacity="0.75"/>
</svg>
