<svg width="24" height="24" viewBox="0 0 24 24" fill="none" xmlns="http://www.w3.org/2000/svg">
<path d="M4 6.25C4 5.5625 4.53125 5 5.21875 5H18.75C19.4375 5 20 5.5625 20 6.25C20 6.53125 19.875 6.8125 19.6875 7.03125L14 13.9375V17.9687C14 18.5312 13.5 19 12.9375 19C12.6875 19 12.4688 18.9375 12.2812 18.7812L10.375 17.3125C10.125 17.125 10 16.8437 10 16.5312V13.9375L4.28125 7.03125C4.09375 6.8125 4 6.53125 4 6.25ZM5.21875 6C5.09375 6 5 6.125 5 6.25C5 6.3125 5 6.34375 5.03125 6.40625L10.875 13.4375C10.9375 13.5312 11 13.6562 11 13.75V16.5312L12.875 18C12.9062 18 12.9062 18 12.9375 18C12.9688 18 13 18 13 17.9687V13.75C13 13.6562 13.0312 13.5312 13.0938 13.4375L18.9375 6.40625C18.9688 6.34375 19 6.3125 19 6.25C19 6.125 18.875 6 18.75 6H5.21875Z" fill="#313131"/>
<circle cx="20" cy="4" r="3" fill="#E10505"/>
</svg>
