<svg width="25" height="24" viewBox="0 0 25 24" fill="none" xmlns="http://www.w3.org/2000/svg">
<path d="M11.5156 15.5625C11.2344 15.8438 10.7188 15.8438 10.4375 15.5625L7.4375 12.5625C7.15625 12.2812 7.15625 11.7656 7.4375 11.4844C7.71875 11.2031 8.23438 11.2031 8.51562 11.4844L11 13.9688L16.4375 8.48438C16.7188 8.20312 17.2344 8.20312 17.5156 8.48438C17.7969 8.76562 17.7969 9.28125 17.5156 9.5625L11.5156 15.5625ZM24.5 12C24.5 18.6562 19.1094 24 12.5 24C5.84375 24 0.5 18.6562 0.5 12C0.5 5.39062 5.84375 0 12.5 0C19.1094 0 24.5 5.39062 24.5 12ZM12.5 1.5C6.6875 1.5 2 6.23438 2 12C2 17.8125 6.6875 22.5 12.5 22.5C18.2656 22.5 23 17.8125 23 12C23 6.23438 18.2656 1.5 12.5 1.5Z" fill="#00850D"/>
</svg>
