<svg width="16" height="16" viewBox="0 0 16 16" fill="none" xmlns="http://www.w3.org/2000/svg">
<circle cx="8" cy="8" r="7.85" fill="#D6410A" stroke="#F6BF99" stroke-width="0.3"/>
<path d="M12.7489 9.11701C12.9586 9.22184 13.0425 9.47344 12.9796 9.68311C12.7489 10.4798 12.3296 11.1927 11.7845 11.7798C11.6167 11.9475 11.3651 11.9894 11.1555 11.8636L10.4845 11.4653C10.212 11.6749 9.91845 11.8427 9.58298 11.9894V12.7652C9.58298 13.0168 9.43621 13.2055 9.20558 13.2684C8.40885 13.4571 7.59115 13.4571 6.79442 13.2684C6.56379 13.2055 6.41702 13.0168 6.41702 12.7652V11.9894C6.08155 11.8427 5.78802 11.6749 5.51546 11.4653L4.84452 11.8636C4.63486 11.9894 4.38326 11.9475 4.21553 11.7798C3.67039 11.1927 3.25106 10.4798 3.02043 9.68311C2.95753 9.47344 3.0414 9.22184 3.25106 9.11701L3.92199 8.71864C3.90103 8.55091 3.90103 8.38318 3.90103 8.21545C3.90103 8.02675 3.90103 7.85901 3.92199 7.69128L3.25106 7.29291C3.0414 7.18808 2.95753 6.93648 3.02043 6.72682C3.25106 5.93008 3.67039 5.21722 4.21553 4.63015C4.38326 4.46242 4.63486 4.42049 4.84452 4.54629L5.51546 4.94465C5.78802 4.73499 6.08155 4.56725 6.41702 4.42049V3.64472C6.41702 3.39312 6.56379 3.20442 6.79442 3.14152C7.59115 2.95283 8.40885 2.95283 9.20558 3.14152C9.43621 3.20442 9.58298 3.39312 9.58298 3.64472V4.42049C9.91845 4.56725 10.212 4.73499 10.4845 4.94465L11.1555 4.54629C11.3651 4.42049 11.6167 4.46242 11.7845 4.63015C12.3296 5.21722 12.7489 5.93008 12.9796 6.72682C13.0425 6.93648 12.9586 7.18808 12.7489 7.29291L12.078 7.69128C12.099 7.85901 12.099 8.02675 12.099 8.19448C12.099 8.38318 12.099 8.55091 12.078 8.71864L12.7489 9.11701ZM11.3861 11.2137C11.7845 10.7524 12.099 10.2073 12.3086 9.62021L11.3232 9.07508C11.47 8.32028 11.47 8.08965 11.3232 7.33485L12.3086 6.78972C12.099 6.20265 11.7845 5.65752 11.3861 5.19625L10.4007 5.76235C9.83458 5.25915 9.62491 5.13335 8.91205 4.88175V3.77052C8.61852 3.70762 8.32498 3.66569 8.01048 3.66569C7.69598 3.66569 7.38148 3.70762 7.08795 3.77052V4.88175C6.37509 5.13335 6.16542 5.25915 5.59932 5.76235L4.61389 5.19625C4.21553 5.65752 3.90103 6.20265 3.69136 6.78972L4.67679 7.33485C4.53003 8.08965 4.53003 8.32028 4.67679 9.07508L3.69136 9.62021C3.90103 10.2073 4.21553 10.7524 4.61389 11.2137L5.59932 10.6476C6.16542 11.1508 6.37509 11.2766 7.08795 11.5282V12.6394C7.38148 12.7023 7.67502 12.7442 7.98952 12.7442C8.30402 12.7442 8.61852 12.7023 8.91205 12.6394V11.5282C9.64588 11.2556 9.83458 11.1508 10.4007 10.6476L11.3861 11.2137ZM8.01048 6.18168C9.10075 6.18168 10.0233 7.10421 10.0233 8.19448C10.0233 9.30571 9.10075 10.2073 8.01048 10.2073C6.89925 10.2073 5.99769 9.30571 5.99769 8.19448C5.99769 7.10421 6.89925 6.18168 8.01048 6.18168ZM8.01048 9.53634C8.74431 9.53634 9.35235 8.94928 9.35235 8.19448C9.35235 7.46065 8.74431 6.85262 8.01048 6.85262C7.25569 6.85262 6.66862 7.46065 6.66862 8.19448C6.66862 8.94928 7.25569 9.53634 8.01048 9.53634Z" fill="white"/>
</svg>
