<svg width="24" height="17" viewBox="0 0 24 17" fill="none" xmlns="http://www.w3.org/2000/svg">
<path d="M11.55 4.9875C11.775 4.7625 12.1875 4.7625 12.4125 4.9875L15.4125 7.9875C15.6375 8.2125 15.6375 8.625 15.4125 8.85C15.1875 9.075 14.775 9.075 14.55 8.85L12.6 6.8625V12.6C12.6 12.9375 12.3 13.2 12 13.2C11.6625 13.2 11.4 12.9375 11.4 12.6V6.8625L9.4125 8.85C9.1875 9.075 8.775 9.075 8.55 8.85C8.325 8.625 8.325 8.2125 8.55 7.9875L11.55 4.9875ZM10.2 0C12.4125 0 14.4 1.125 15.6 2.8125C16.125 2.55 16.725 2.4 17.4 2.4C19.6875 2.4 21.6 4.3125 21.6 6.6C21.6 7.0125 21.525 7.3875 21.4125 7.7625C22.95 8.5875 24 10.1625 24 12C24 14.6625 21.825 16.8 19.2 16.8H5.4C2.4 16.8 0 14.4 0 11.4C0 9.075 1.5 7.05 3.6 6.3375C3.75 2.8125 6.6375 0 10.2 0ZM10.2 1.2C7.275 1.2 4.9125 3.4875 4.8 6.375C4.7625 6.8625 4.4625 7.275 3.975 7.4625C2.3625 8.025 1.2 9.6 1.2 11.4C1.2 13.725 3.075 15.6 5.4 15.6H19.2C21.1875 15.6 22.8 13.9875 22.8 12C22.8 10.65 22.0125 9.45 20.85 8.85C20.3625 8.55 20.1 7.9875 20.25 7.425C20.325 7.1625 20.4 6.9 20.4 6.6C20.4 4.95 19.05 3.6 17.4 3.6C16.9125 3.6 16.5 3.7125 16.0875 3.9C15.5625 4.1625 14.925 3.975 14.5875 3.525C13.6125 2.1375 12 1.2 10.2 1.2Z" fill="#313131"/>
</svg>
