<svg width="20" height="16" viewBox="0 0 20 16" fill="none" xmlns="http://www.w3.org/2000/svg">
<path d="M19.6127 11.2188C19.9255 11.4062 20.0819 11.8125 19.9568 12.1562C19.7378 12.8438 19.3938 13.4688 18.9246 14C18.6743 14.25 18.2364 14.3125 17.9236 14.1562L17.3919 13.8438C17.1729 14 16.9227 14.125 16.6724 14.25V14.8438C16.6724 15.2188 16.4222 15.5625 16.0468 15.625C15.7028 15.7188 15.3587 15.75 14.9833 15.75C14.6392 15.75 14.2952 15.7188 13.9511 15.625C13.5757 15.5625 13.3255 15.2188 13.3255 14.8438V14.25C13.0753 14.125 12.825 14 12.6061 13.8438L12.0743 14.1562C11.7615 14.3125 11.3236 14.25 11.0733 13.9688C10.6041 13.4688 10.2601 12.8438 10.0411 12.1562C9.91599 11.8125 10.0724 11.4062 10.3852 11.2188L10.9169 10.9375C10.9169 10.7812 10.8857 10.6562 10.8857 10.5312C10.8857 10.375 10.9169 10.25 10.9169 10.0938L10.3852 9.8125C10.0724 9.625 9.91599 9.21875 10.0411 8.875C10.2601 8.1875 10.6041 7.5625 11.0733 7.03125C11.3236 6.78125 11.7615 6.71875 12.0743 6.875L12.6061 7.1875C12.825 7.03125 13.0753 6.90625 13.3255 6.8125V6.1875C13.3255 5.8125 13.5757 5.46875 13.9511 5.40625C14.6392 5.25 15.3587 5.25 16.0468 5.40625C16.4222 5.46875 16.6724 5.8125 16.6724 6.1875V6.8125C16.9227 6.90625 17.1729 7.03125 17.3919 7.1875L17.9236 6.875C18.2364 6.71875 18.6743 6.78125 18.9246 7.03125C19.3938 7.5625 19.7378 8.1875 19.9568 8.875C20.0819 9.21875 19.9255 9.625 19.6127 9.8125L19.081 10.0938C19.081 10.25 19.1123 10.375 19.1123 10.5312C19.1123 10.6562 19.081 10.7812 19.081 10.9375L19.6127 11.2188ZM18.0487 9.9375L17.9862 9.59375L18.9559 9.03125C18.7995 8.59375 18.5805 8.1875 18.2677 7.84375L17.2667 8.40625L17.0165 8.1875C16.7037 7.9375 16.3909 7.75 16.0156 7.59375L15.6715 7.5V6.34375C15.2336 6.25 14.7644 6.25 14.3264 6.34375V7.5L13.9824 7.59375C13.607 7.75 13.2942 7.9375 12.9814 8.1875L12.7312 8.40625L11.7302 7.84375C11.4174 8.1875 11.1985 8.59375 11.0421 9.03125L12.0117 9.59375L11.9492 9.9375C11.9179 10.125 11.8866 10.3125 11.8866 10.5312C11.8866 10.7188 11.9179 10.9062 11.9492 11.0938L12.0117 11.4375L11.0421 12C11.1985 12.4375 11.4174 12.8438 11.7302 13.1875L12.6999 12.625L12.9814 12.8438C13.2629 13.125 13.607 13.3125 13.9824 13.4375L14.3264 13.5625V14.6875C14.7644 14.7812 15.2336 14.7812 15.6715 14.6875V13.5625L16.0156 13.4375C16.3909 13.3125 16.735 13.125 17.0165 12.8438L17.298 12.625L18.2677 13.1875C18.5805 12.8438 18.7995 12.4375 18.9559 12L17.9862 11.4375L18.0487 11.0938C18.08 10.9062 18.1113 10.7188 18.1113 10.5312C18.1113 10.3125 18.08 10.125 18.0487 9.9375ZM15.0146 8.75C15.953 8.75 16.735 9.5625 16.735 10.5C16.735 11.4688 15.9217 12.25 15.0146 12.25C14.0762 12.25 13.2629 11.4688 13.2629 10.5C13.2629 9.5625 14.0449 8.75 15.0146 8.75ZM15.0146 11.25C15.4212 11.25 15.734 10.9375 15.734 10.5C15.734 10.0938 15.4212 9.75 15.0146 9.75C14.5767 9.75 14.2639 10.0938 14.2639 10.5C14.2639 10.9375 14.5767 11.25 15.0146 11.25ZM11.5113 15C11.7615 15 12.0117 15.25 12.0117 15.5C12.0117 15.7812 11.7615 16 11.5113 16H1.06381C0.469494 16 0.000297446 15.5312 0.000297446 14.9375C-0.0309824 11.9375 2.40884 9.5 5.4117 9.5H8.5084C8.75864 9.5 9.00888 9.75 9.00888 10C9.00888 10.2812 8.75864 10.5 8.5084 10.5H5.4117C2.97188 10.5 0.969971 12.5 1.00125 14.9375C1.00125 14.9688 1.03253 15 1.06381 15H11.5113ZM7.00697 8C4.78611 8 3.00316 6.21875 3.00316 4C3.00316 1.8125 4.78611 0 7.00697 0C9.19656 0 11.0108 1.8125 11.0108 4C11.0108 6.21875 9.19656 8 7.00697 8ZM7.00697 1C5.34914 1 4.00411 2.375 4.00411 4C4.00411 5.65625 5.34914 7 7.00697 7C8.63352 7 10.0098 5.65625 10.0098 4C10.0098 2.375 8.63352 1 7.00697 1Z" fill="#313131" fill-opacity="0.75"/>
</svg>
