<svg width="26" height="22" viewBox="0 0 26 22" fill="none" xmlns="http://www.w3.org/2000/svg">
<path d="M13 15.875C13.6094 15.875 14.125 16.3906 14.0781 17C14.0781 17.6562 13.6094 18.125 13 18.125C12.3906 18.125 11.875 17.6562 11.875 17C11.875 16.3906 12.3438 15.875 13 15.875ZM13 14C12.5781 14 12.25 13.6719 12.25 13.25V6.5C12.25 6.125 12.625 5.75 13 5.75C13.3281 5.75 13.7031 6.125 13.7031 6.5V13.25C13.7031 13.6719 13.375 14 13 14ZM24.625 17.6562C25.0938 18.4531 25.0938 19.3906 24.625 20.1875C24.1562 21.0312 23.3125 21.5 22.375 21.5H3.625C2.64062 21.5 1.79688 21.0312 1.32812 20.1875C0.859375 19.3906 0.859375 18.4531 1.32812 17.6562L10.7031 1.8125C11.1719 1.01562 12.0156 0.5 13 0.5C13.9375 0.546875 14.7812 1.01562 15.25 1.8125L24.625 17.6562ZM23.3125 19.4375C23.5469 19.1094 23.5 18.7344 23.3125 18.4062L13.9375 2.5625C13.75 2.23438 13.375 2.04688 13 2C12.9531 2 13 2 13 2C12.5781 2 12.2031 2.23438 12.0156 2.5625L2.64062 18.4062C2.45312 18.7344 2.40625 19.1094 2.64062 19.4375C2.82812 19.8125 3.20312 20 3.625 20H22.3281C22.75 20 23.125 19.8125 23.3125 19.4375Z" fill="#F19B2D"/>
</svg>
