<svg width="24" height="24" viewBox="0 0 24 24" fill="none" xmlns="http://www.w3.org/2000/svg">
<path d="M13.5132 9C13.8886 9 14.2639 9.375 14.2639 9.75C14.2639 10.1719 13.8886 10.5 13.5132 10.5H10.5103V13.5C10.5103 13.9219 10.1349 14.25 9.75953 14.25C9.33724 14.25 9.0088 13.9219 9.0088 13.5V10.5H6.00587C5.58358 10.5 5.25513 10.1719 5.25513 9.75C5.25513 9.375 5.58358 9 6.00587 9H9.0088V6C9.0088 5.625 9.33724 5.25 9.75953 5.25C10.1349 5.25 10.5103 5.625 10.5103 6V9H13.5132ZM23.7889 22.7344C24.0704 23.0156 24.0704 23.5312 23.7889 23.8125C23.6481 23.9531 23.4604 24 23.2727 24C23.0381 24 22.8504 23.9531 22.7097 23.8125L16.0938 17.1562C14.3578 18.6562 12.1525 19.5 9.75953 19.5C4.36364 19.5 0 15.1406 0 9.75C0 4.40625 4.36364 0 9.75953 0C15.1085 0 19.5191 4.40625 19.5191 9.75C19.5191 12.1875 18.6276 14.3906 17.1261 16.125L23.7889 22.7344ZM9.75953 18C14.3109 18 18.0176 14.3438 18.0176 9.75C18.0176 5.20312 14.3109 1.5 9.75953 1.5C5.16129 1.5 1.50147 5.20312 1.50147 9.75C1.50147 14.2969 5.16129 18 9.75953 18Z" fill="#313131"/>
</svg>
